<?xml version="1.0" encoding="utf-8"?>
<!-- Generator: Adobe Illustrator 20.0.0, SVG Export Plug-In . SVG Version: 6.00 Build 0)  -->
<svg version="1.1" id="Layer_1" xmlns="http://www.w3.org/2000/svg" xmlns:xlink="http://www.w3.org/1999/xlink" x="0px" y="0px"
	 viewBox="0 0 144 144" style="enable-background:new 0 0 144 144;" xml:space="preserve">
<style type="text/css">
	.st0{fill:#CEA386;}
	.st1{fill:#B58D72;}
	.st2{fill:#DBB190;}
	.st3{fill:#D2AE8C;}
</style>
<path class="st0" d="M116.5,107.5l-7.1,3v28.8c0,0,0,3.3-3.1,3.3s-4.1-2.3-4.1-6.1c0-3.8-1.3-26.5-1.3-26.5l10.8-6.4L116.5,107.5z"
	/>
<path class="st0" d="M27.5,107.5l7.1,3v28.8c0,0,0,3.3,3.1,3.3c3.1,0,4.1-2.3,4.1-6.1c0-3.8,1.3-26.5,1.3-26.5l-10.8-6.4L27.5,107.5
	z"/>
<polygon class="st1" points="38.5,93.3 35.6,100.9 44.1,105 45.8,94.8 "/>
<path class="st1" d="M24.9,103.6c0-2.4,1.9-4.3,4.3-4.3s4.3,1.9,4.3,4.3c0,2.4-1.9,4.3-4.3,4.3c-0.3,0-0.6,0-0.9-0.1
	C26.4,107.3,24.9,105.6,24.9,103.6z"/>
<polygon class="st1" points="105.5,93.3 108.4,100.9 99.9,105 98.2,94.8 "/>
<path class="st1" d="M119.1,103.6c0-2.4-1.9-4.3-4.3-4.3s-4.3,1.9-4.3,4.3c0,2.4,1.9,4.3,4.3,4.3c0.3,0,0.6,0,0.9-0.1
	C117.6,107.3,119.1,105.6,119.1,103.6z"/>
<g>
	<path class="st2" d="M18.5,82.9c0,0-5.8-9.1-7.3-8.8c-1.5,0.3-4.6,1.4-2.1,6.4c2.5,5.1,19.7,37.1,63,37.1v-9.3
		C72,108.3,37.6,109.5,18.5,82.9z"/>
	<path class="st2" d="M132.9,74.1c-1.5-0.3-7.3,8.8-7.3,8.8C106.4,109.5,72,108.3,72,108.3v9.3c43.2,0,60.4-32,63-37.1
		C137.5,75.4,134.4,74.4,132.9,74.1z"/>
</g>
<path class="st3" d="M127.3,15c0,0-0.4-6-4.3-9.1c-3.9-3.1-9.9-4.5-51-4.5S24.9,2.8,21,5.9C17.1,9,16.7,15,16.7,15s-0.6,15.3,0,35.3
	c0.6,20,3.7,29.6,15.7,40.8S72,101.5,72,101.5s27.7,0.9,39.6-10.3c12-11.2,15.1-20.8,15.7-40.8C127.9,30.3,127.3,15,127.3,15z"/>
</svg>
